{"title":"Bajirao Mastani {2015} 1/3 DesiScr Rip XviD AC3 {Team DUS} - jnm","uid":13037523,"size":1458652880,"categoryP":"video","categoryS":"movies","magnet":"?xt=urn:btih:e6b69a6ecfb6f6217f6eb7d3b4b5fdd69e136b1c&amp;dn=Bajirao+Mastani+%7B2015%7D+1%2F3+DesiScr+Rip+XviD+AC3+%7BTeam+DUS%7D+-+jnm&amp;tr=udp%3A%2F%2Ftracker.leechers-paradise.org%3A6969&amp;tr=udp%3A%2F%2Fzer0day.ch%3A1337&amp;tr=udp%3A%2F%2Fopen.demonii.com%3A1337&amp;tr=udp%3A%2F%2Ftracker.coppersurfer.tk%3A6969&amp;tr=udp%3A%2F%2Fexodus.desync.com%3A6969","seeders":1,"leechers":0,"uploader":"makintos13","files":1,"time":1450493914,"description":"screens:\r\n \nhttp://imgmak.com/Kzs \nhttp://imgmak.com/Kz4 \nhttp://imgmak.com/Kz8 \nhttp://imgmak.com/KzL \nhttp://imgmak.com/KzX \nhttp://imgmak.com/K7C \nhttp://imgmak.com/K7K\r\n\r\nYear.............: 2015\r\nSource: A DUS Exclusive from the awesome Sher bro!\r\nRipper...........: jnmjy\r\n\r\nGeneral\r\nFormat                                   : AVI\r\nFormat/Info                              : Audio Video Interleave\r\nFile size                                : 1.36 GiB\r\nDuration                                 : 2h 32mn\r\nOverall bit rate                         : 1 273 Kbps\r\n\r\nVideo\r\nID                                       : 0\r\nFormat                                   : MPEG-4 Visual\r\nFormat profile                           : Advanced   \r\nFormat settings, BVOP                    : 2\r\nFormat settings, QPel                    : No\r\nFormat settings, GMC                     : No warppoints\r\nFormat settings, Matrix                  : Default (H.263)\r\nCodec ID                                 : XVID\r\nCodec ID/Hint                            : XviD\r\nDuration                                 : 2h 32mn\r\nBit rate                                 : 1 010 Kbps\r\nWidth                                    : 640 pixels\r\nHeight                                   : 272 pixels\r\nDisplay aspect ratio                     : 2.35:1\r\nFrame rate                               : 23.976 fps\r\nColor space                              : YUV\r\nChroma subsampling                       : 4:2:0\r\nBit depth                                : 8 bits\r\nScan type                                : Progressive\r\nCompression mode                         : Lossy\r\nBits/(Pixel*Frame)                       : 0.242\r\nStream size                              : 1.08 GiB (79%)\r\nWriting library                          : XviD 67\r\n\r\nAudio\r\nID                                       : 1\r\nFormat                                   : AC-3\r\nFormat/Info                              : Audio Coding 3\r\nMode extension                           : CM (complete main)\r\nFormat settings, Endianness              : Big\r\nCodec ID                                 : 2000\r\nDuration                                 : 2h 32mn\r\nBit rate mode                            : Constant\r\nBit rate                                 : 256 Kbps\r\nChannel(s)                               : 2 channels\r\nChannel positions                        : Front: L R\r\nSampling rate                            : 48.0 KHz\r\nCompression mode                         : Lossy\r\nStream size                              : 280 MiB (20%)\r\nAlignment                                : Aligned on interleaves\r\nInterleave, duration                     : 64 ms (1.53 video frames)\r\nInterleave, preload duration             : 192 ms","torrent":{"xt":"urn:btih:e6b69a6ecfb6f6217f6eb7d3b4b5fdd69e136b1c","amp;dn":"Bajirao+Mastani+%7B2015%7D+1%2F3+DesiScr+Rip+XviD+AC3+%7BTeam+DUS%7D+-+jnm","amp;tr":["udp%3A%2F%2Ftracker.leechers-paradise.org%3A6969","udp%3A%2F%2Fzer0day.ch%3A1337","udp%3A%2F%2Fopen.demonii.com%3A1337","udp%3A%2F%2Ftracker.coppersurfer.tk%3A6969","udp%3A%2F%2Fexodus.desync.com%3A6969"],"infoHash":"e6b69a6ecfb6f6217f6eb7d3b4b5fdd69e136b1c","infoHashBuffer":{"type":"Buffer","data":[230,182,154,110,207,182,246,33,127,110,183,211,180,181,253,214,158,19,107,28]},"announce":[],"urlList":[]}}